<svg width="42" height="42" viewBox="0 0 42 42" fill="none" xmlns="http://www.w3.org/2000/svg">
<path d="M7.87334 17.06C7.87334 20.8247 9.09566 24.3023 11.1547 27.1238L0.769081 37.5156C-0.25636 38.5408 -0.25636 40.2058 0.769081 41.2311C1.79452 42.2563 3.45984 42.2563 4.48528 41.2311L14.8709 30.8392C17.693 32.9061 21.1713 34.12 24.9367 34.12C34.3625 34.12 42 26.484 42 17.06C42 7.63599 34.3625 0 24.9367 0C15.5108 0 7.87334 7.63599 7.87334 17.06ZM24.9367 28.8708C18.4149 28.8708 13.1236 23.5805 13.1236 17.06C13.1236 10.5395 18.4149 5.24923 24.9367 5.24923C31.4585 5.24923 36.7497 10.5395 36.7497 17.06C36.7497 23.5805 31.4585 28.8708 24.9367 28.8708Z" fill="#59A9C7"/>
<path d="M24.9367 28.8708C18.4149 28.8708 13.1236 23.5805 13.1236 17.06C13.1236 10.5395 18.4149 5.24923 24.9367 5.24923C31.4585 5.24923 36.7497 10.5395 36.7497 17.06C36.7497 23.5805 31.4585 28.8708 24.9367 28.8708Z" fill="#D7EAF1"/>
</svg>
