<svg width="52" height="42" viewBox="0 0 52 42" fill="none" xmlns="http://www.w3.org/2000/svg">
<path d="M28.6 10.5C28.6 16.2996 23.9444 21 18.2 21C12.4556 21 7.8 16.2996 7.8 10.5C7.8 4.70039 12.4556 0 18.2 0C23.9444 0 28.6 4.70039 28.6 10.5ZM0 39.5637C0 31.4836 6.48375 24.9375 14.4869 24.9375H21.9131C29.9162 24.9375 36.4 31.4836 36.4 39.5637C36.4 40.909 35.3194 42 33.9869 42H2.41312C1.08063 42 0 40.909 0 39.5637ZM49.5056 42H38.3012C38.74 41.2289 39 40.3348 39 39.375V38.7188C39 33.7395 36.7981 29.2688 33.3287 26.2664C33.5237 26.2582 33.7106 26.25 33.9056 26.25H38.8944C46.1337 26.25 52 32.1727 52 39.4816C52 40.8762 50.8787 42 49.5056 42ZM35.1 21C32.5812 21 30.3062 19.9664 28.6569 18.3012C30.2575 16.1191 31.2 13.4203 31.2 10.5C31.2 8.30156 30.6637 6.22617 29.7131 4.40508C31.2244 3.28945 33.085 2.625 35.1 2.625C40.1294 2.625 44.2 6.73477 44.2 11.8125C44.2 16.8902 40.1294 21 35.1 21Z" fill="#ffffff"/>
</svg>
