<svg width="42" height="42" viewBox="0 0 42 42" fill="none" xmlns="http://www.w3.org/2000/svg">
<path d="M15.75 8.59688C15.75 7.84219 15.2742 7.17773 14.6672 6.72656C13.7156 6.01289 13.125 5.02852 13.125 3.9375C13.125 1.76367 15.4793 0 18.375 0C21.2707 0 23.625 1.76367 23.625 3.9375C23.625 5.02852 23.0344 6.01289 22.0828 6.72656C21.4758 7.17773 21 7.84219 21 8.59688C21 9.64688 21.8531 10.5 22.9031 10.5H27.5625C29.7363 10.5 31.5 12.2637 31.5 14.4375V19.0969C31.5 20.1469 32.3531 21 33.4031 21C34.1578 21 34.8223 20.5242 35.2734 19.9172C35.9871 18.9656 36.9715 18.375 38.0625 18.375C40.2363 18.375 42 20.7293 42 23.625C42 26.5207 40.2363 28.875 38.0625 28.875C36.9715 28.875 35.9871 28.2844 35.2734 27.3328C34.8223 26.7258 34.1578 26.25 33.4031 26.25C32.3531 26.25 31.5 27.1031 31.5 28.1531V38.0625C31.5 40.2363 29.7363 42 27.5625 42H22.9031C21.8531 42 21 41.1469 21 40.0969C21 39.3422 21.4758 38.6777 22.0828 38.2266C23.0344 37.5129 23.625 36.5285 23.625 35.4375C23.625 33.2637 21.2707 31.5 18.375 31.5C15.4793 31.5 13.125 33.2637 13.125 35.4375C13.125 36.5285 13.7156 37.5129 14.6672 38.2266C15.2742 38.6777 15.75 39.3422 15.75 40.0969C15.75 41.1469 14.8969 42 13.8469 42H3.9375C1.76367 42 0 40.2363 0 38.0625V28.1531C0 27.1031 0.853125 26.25 1.90313 26.25C2.65781 26.25 3.32227 26.7258 3.77344 27.3328C4.48711 28.2844 5.47148 28.875 6.5625 28.875C8.73633 28.875 10.5 26.5207 10.5 23.625C10.5 20.7293 8.73633 18.375 6.5625 18.375C5.47148 18.375 4.48711 18.9656 3.77344 19.9172C3.32227 20.5242 2.65781 21 1.90313 21C0.853125 21 0 20.1469 0 19.0969V14.4375C0 12.2637 1.76367 10.5 3.9375 10.5H13.8469C14.8969 10.5 15.75 9.64688 15.75 8.59688Z" fill="#ffffff"/>
</svg>
