<svg width="42" height="42" viewBox="0 0 42 42" fill="none" xmlns="http://www.w3.org/2000/svg">
<path d="M21 42C32.5992 42 42 32.5992 42 21C42 9.40078 32.5992 0 21 0C9.40078 0 0 9.40078 0 21C0 32.5992 9.40078 42 21 42ZM13.4613 26.7012C14.9297 28.3992 17.4398 30.1875 21 30.1875C24.5602 30.1875 27.0703 28.3992 28.5387 26.7012C29.0145 26.1516 29.843 26.0941 30.3926 26.5699C30.9422 27.0457 30.9996 27.8742 30.5238 28.4238C28.6945 30.5238 25.5199 32.8125 21 32.8125C16.4801 32.8125 13.3055 30.5238 11.4762 28.4238C11.0004 27.8742 11.0578 27.0457 11.6074 26.5699C12.157 26.0941 12.9855 26.1516 13.4613 26.7012ZM17.85 18.7688L17.8336 18.7523C17.8172 18.7359 17.8008 18.7113 17.7762 18.6785C17.727 18.6129 17.6449 18.5145 17.5465 18.3996C17.3414 18.1699 17.0543 17.8582 16.7098 17.5547C15.9879 16.9148 15.1676 16.4062 14.4375 16.4062C13.7074 16.4062 12.8871 16.9148 12.1652 17.5547C11.8207 17.8582 11.5336 18.1699 11.3285 18.3996C11.2301 18.5145 11.148 18.6129 11.0988 18.6785C11.0742 18.7113 11.0496 18.7359 11.0414 18.7523L11.025 18.7688C10.8527 18.9984 10.5574 19.0887 10.2949 18.9984C10.0324 18.9082 9.84375 18.6621 9.84375 18.375C9.84375 16.9066 10.3934 15.4547 11.2055 14.3719C12.0094 13.3055 13.166 12.4688 14.4375 12.4688C15.709 12.4688 16.8656 13.3055 17.6695 14.3719C18.4816 15.4547 19.0312 16.9066 19.0312 18.375C19.0312 18.6539 18.8508 18.9082 18.5801 18.9984C18.3094 19.0887 18.0141 18.9984 17.85 18.7688V18.7688ZM30.975 18.7688L30.9586 18.7523C30.9422 18.7359 30.9258 18.7113 30.9012 18.6785C30.852 18.6129 30.7699 18.5145 30.6715 18.3996C30.4664 18.1699 30.1793 17.8582 29.8348 17.5547C29.1129 16.9148 28.2926 16.4062 27.5625 16.4062C26.8324 16.4062 26.0121 16.9148 25.2902 17.5547C24.9457 17.8582 24.6586 18.1699 24.4535 18.3996C24.3551 18.5145 24.273 18.6129 24.2238 18.6785C24.1992 18.7113 24.1746 18.7359 24.1664 18.7523L24.15 18.7688C23.9777 18.9984 23.6824 19.0887 23.4199 18.9984C23.1574 18.9082 22.9688 18.6621 22.9688 18.375C22.9688 16.9066 23.5184 15.4547 24.3305 14.3719C25.1344 13.3055 26.291 12.4688 27.5625 12.4688C28.834 12.4688 29.9906 13.3055 30.7945 14.3719C31.6066 15.4547 32.1562 16.9066 32.1562 18.375C32.1562 18.6539 31.9758 18.9082 31.7051 18.9984C31.4344 19.0887 31.1391 18.9984 30.975 18.7688V18.7688Z" fill="#ffffff"/>
</svg>
