<svg width="38" height="39" viewBox="0 0 38 39" fill="none" xmlns="http://www.w3.org/2000/svg">
<path d="M3.11201 9.51474L27.0129 1.99082L36.7229 21.1768L18.424 35.4723L3.11201 9.51474Z" fill="white"/>
<path d="M25.0853 0.733071L4.38307 6.48388C1.5969 7.25535 0.191071 9.77679 1.443 12.0542C1.443 12.0542 1.2838 11.7646 15.0623 36.8295C16.3142 39.1069 19.1855 39.2513 21.3 37.2891L37.1248 22.6656C38.1287 21.7272 38.2604 19.839 37.4716 18.4041L28.842 2.70562C28.0532 1.2707 26.4011 0.377558 25.0787 0.736715L25.0853 0.733071ZM25.7669 23.531C26.2315 24.4071 25.9999 25.5856 25.2163 26.1947L20.3235 29.9989C19.3524 30.7641 18.078 30.5891 17.5179 29.5857L7.95833 12.1956C7.40111 11.182 7.93086 10.0178 9.10742 9.61097L14.9938 7.58324C15.9396 7.25351 17.0751 7.70381 17.5563 8.57924L25.7699 23.5208L25.7669 23.531ZM31.1153 11.9043C31.5133 12.6284 31.3793 13.5029 30.789 13.858L27.306 15.9556C26.6147 16.3756 25.6619 16.0556 25.2096 15.2328L20.8749 7.34739C20.4226 6.52462 20.6995 5.63052 21.4776 5.36853L25.3767 4.02788C26.0292 3.80151 26.8789 4.21341 27.2806 4.94403L31.1087 11.908L31.1153 11.9043Z" fill="#0B7DC2"/>
</svg>
