<svg width="61" height="62" viewBox="0 0 61 62" fill="none" xmlns="http://www.w3.org/2000/svg">
<path d="M4.81549 16.841L33.3828 1.78572C37.714 -0.496854 43.0707 1.17742 45.365 5.5308L59.9117 33.1331C62.206 37.4865 60.5591 42.8517 56.2279 45.1343L27.6606 60.1896C23.3295 62.4721 17.9727 60.7979 15.6784 56.4445L1.13174 28.8422C-1.16253 24.4888 0.484317 19.1235 4.81549 16.841Z" fill="#001E36"/>
<path d="M22.9559 46.1236L12.9099 27.0613C12.8415 26.9316 12.8578 26.8284 12.9868 26.7604C13.3001 26.5953 13.595 26.4399 14.0091 26.1979C14.4417 25.9463 14.9025 25.7035 15.3903 25.4227C15.8782 25.1419 16.4127 24.8602 16.9743 24.5406C17.5358 24.221 18.0888 23.9296 18.6417 23.6382C20.153 22.8417 21.5039 22.3665 22.741 22.2116C23.8285 22.0408 24.9497 22.1127 26.0113 22.4291C26.9134 22.7111 27.755 23.1907 28.4697 23.8319C29.1562 24.4642 29.7234 25.1831 30.1627 26.0167C31.0023 27.6099 31.3269 29.1194 31.1364 30.5453C30.9459 31.9713 30.3238 33.2932 29.3602 34.3692C28.3509 35.4928 27.0565 36.388 25.5452 37.1845C25.1029 37.4176 24.808 37.573 24.6139 37.6516C24.4199 37.7302 24.1618 37.8662 23.8117 38.0508L26.9455 43.9973C27.0323 44.1173 26.9987 44.277 26.8795 44.3635C26.8611 44.3732 26.8426 44.3829 26.8058 44.4023L23.304 46.2478C23.1565 46.3255 23.0437 46.2903 22.9559 46.1236ZM18.7046 28.3154L21.9849 34.5398C22.2527 34.4224 22.5021 34.3146 22.7232 34.1981L23.7 33.6833C24.4188 33.3044 25.079 32.8145 25.6438 32.2328C26.1457 31.7553 26.4763 31.1313 26.6377 30.4545C26.7807 29.7874 26.633 29.0604 26.2035 28.2453C25.9192 27.6613 25.4691 27.1648 24.9107 26.82C24.3435 26.5035 23.7059 26.3661 23.064 26.444C22.2357 26.5255 21.4399 26.8029 20.694 27.2196C20.2148 27.4722 19.7909 27.6956 19.4505 27.8986C19.0721 28.0744 18.8238 28.2289 18.7046 28.3154Z" fill="#31A8FF"/>
<path d="M42.8056 22.1232C42.0965 22.1182 41.3993 22.2252 40.7044 22.4258C39.9443 22.637 39.2136 22.9037 38.5132 23.2728C38.1349 23.4486 37.7771 23.7081 37.4757 23.9853C37.2654 24.1671 37.131 24.4037 37.0997 24.6569C37.0856 24.8537 37.1279 25.0681 37.2158 25.2348C37.3037 25.4015 37.4653 25.5294 37.6539 25.6193C37.9272 25.7357 38.2362 25.7858 38.5442 25.7892C39.0852 25.7881 39.635 25.7588 40.1749 25.7109C41.3459 25.5199 42.5484 25.4779 43.7259 25.5675C44.5391 25.6359 45.3101 25.8924 45.9922 26.3377C46.5995 26.7751 47.0887 27.3458 47.4217 28.0224C47.899 28.8833 48.0998 29.89 48.0014 30.865C47.8759 31.878 47.4597 32.8311 46.8061 33.6016C46.108 34.4666 45.1096 35.2531 43.7826 35.9525C42.9348 36.3993 42.0663 36.7623 41.1491 37.0326C40.4454 37.2614 39.693 37.3976 38.9568 37.4306C38.7887 37.4244 38.6282 37.3433 38.5685 37.1854L36.8698 33.9621C36.8405 33.9065 36.8199 33.8227 36.8557 33.7565C36.8914 33.6903 36.9565 33.6797 37.0313 33.6876C37.9746 33.7349 38.8865 33.633 39.7951 33.3909C40.593 33.2071 41.3791 32.9112 42.1163 32.5226C42.8167 32.1535 43.2655 31.7987 43.5093 31.4571C43.7359 31.172 43.7727 30.7502 43.5969 30.4168C43.4603 30.1574 43.1859 29.9943 42.7641 29.9089C42.3423 29.8235 41.5876 29.8661 40.499 29.9901C39.3834 30.152 38.2828 30.1639 37.179 30.0356C36.3928 29.9291 35.6305 29.6444 34.9484 29.1991C34.3411 28.7617 33.852 28.1911 33.5287 27.533C33.1089 26.7364 32.9298 25.8603 32.974 24.9612C33.0443 23.9774 33.4138 23.0252 34.011 22.237C34.643 21.3359 35.623 20.5591 36.9316 19.8694C37.6872 19.4712 38.4906 19.1188 39.3048 18.8317C39.8968 18.6145 40.5094 18.481 41.1144 18.4225C41.1979 18.4022 41.3106 18.4374 41.3865 18.4921C41.444 18.5565 41.5015 18.6209 41.5406 18.695L43.1319 21.7145C43.171 21.7886 43.1731 21.8822 43.1374 21.9484C42.991 22.0728 42.8989 22.1214 42.8056 22.1232Z" fill="#31A8FF"/>
</svg>
