<svg width="48" height="50" viewBox="0 0 48 50" fill="none" xmlns="http://www.w3.org/2000/svg">
<path d="M11.986 4.41213C13.6694 1.48112 16.9874 -0.280402 19.5482 0.521473L42.0093 7.57458C46.5322 8.99594 48.5028 13.7371 46.0276 18.0469L30.0907 45.7961C27.6155 50.1059 22.5274 50.7931 19.0204 47.6028L1.60934 31.7566C-0.373769 29.9489 -0.52437 26.1952 1.15896 23.2642L11.986 4.41213Z" fill="#0D2131"/>
<path d="M13.8984 25.057C13.8536 25.135 13.7543 25.1472 13.6639 25.0837C13.5599 25.024 13.5254 24.9234 13.5752 24.8367C13.62 24.7587 13.7192 24.7465 13.8097 24.8099C13.905 24.8647 13.9482 24.9702 13.8984 25.057ZM13.0617 24.265C13.0045 24.3244 13.0104 24.4547 13.0822 24.5305C13.1353 24.6187 13.2506 24.6388 13.3078 24.5794C13.37 24.5113 13.3591 24.3897 13.2973 24.2966C13.2391 24.217 13.1238 24.1969 13.0617 24.265ZM14.4342 25.0879C14.3288 25.0504 14.2283 25.085 14.1872 25.1767C14.151 25.2597 14.2078 25.3615 14.3132 25.399C14.4185 25.4364 14.5191 25.4019 14.5552 25.3189C14.5864 25.2445 14.5346 25.134 14.4342 25.0879ZM25.1595 11.4128C20.4232 9.41917 14.9915 11.7888 12.1577 16.723C9.89171 20.6686 9.82564 25.3818 11.9593 28.6944C12.2872 29.0672 12.5989 28.8657 12.7434 28.6142C12.8878 28.3628 13.6262 27.057 14.0893 26.2506C14.0893 26.2506 11.68 25.3858 12.2138 23.4322C12.2138 23.4322 12.5032 22.1453 12.1919 21.5629C12.1919 21.5629 11.8678 20.5811 12.5589 21.0241C12.5589 21.0241 13.2363 21.5515 13.1345 22.6924C12.9506 24.5588 14.2982 24.8829 14.8786 24.9164C15.3053 24.3543 15.7524 24.0575 16.126 23.9492C14.5276 22.6161 13.0248 21.2571 15.0617 17.7104C15.6444 16.6958 16.1637 16.3137 17.0378 15.9162C17.0992 15.6286 17.4018 14.4993 18.5701 13.4289C19.3811 13.5026 20.2263 15.5448 20.2263 15.5448C21.0211 15.6669 21.8131 15.9142 22.5628 16.2755C23.3124 16.6368 24.022 17.1482 24.6285 17.7387C24.6285 17.7387 27.2368 17.2532 27.9014 17.9231C27.6099 19.6354 26.6366 20.5872 26.3732 20.8049C26.5755 21.8782 26.6284 22.6697 25.966 23.823C23.6253 27.8987 21.2535 26.8479 19.1471 25.8572C19.2787 26.371 19.2063 27.1597 18.6634 28.1049C17.8815 29.4664 16.9067 31.1437 16.7124 31.4819C16.563 31.742 16.5336 32.1749 17.0131 32.4041C21.3653 33.6006 26.3814 31.2921 29.1803 26.4186C32.6814 20.3225 30.5079 13.6657 25.1818 11.4141L25.1595 11.4128ZM12.8135 22.0467C12.8135 22.0467 12.7177 22.1532 12.7212 22.2475C12.7384 22.3381 12.7842 22.3989 12.8524 22.3805C12.9157 22.3707 12.9482 22.274 12.9446 22.1798C12.9275 22.0892 12.8817 22.0283 12.8135 22.0467ZM12.6719 21.5503C12.6297 21.5837 12.6208 21.6593 12.6566 21.7376C12.68 21.7971 12.7407 21.832 12.7966 21.7949C12.8389 21.7615 12.8477 21.6859 12.8119 21.6077C12.7662 21.5468 12.7178 21.5306 12.6719 21.5503ZM12.8562 23.4782C12.7793 23.4917 12.7319 23.6144 12.7651 23.7372C12.7847 23.8638 12.8615 23.9309 12.9347 23.9038C13.003 23.8854 13.0417 23.7577 13.0258 23.6448C13.0062 23.5182 12.9295 23.4511 12.8562 23.4782ZM12.8331 22.7153C12.7611 22.7201 12.7064 22.8155 12.7086 22.9321C12.7108 23.0487 12.764 23.1369 12.8272 23.1271C12.9042 23.1136 12.9589 23.0183 12.9617 22.893C12.9681 22.7814 12.915 22.6932 12.8381 22.7067L12.8331 22.7153Z" fill="white"/>
</svg>
