<svg width="54" height="52" viewBox="0 0 54 52" fill="none" xmlns="http://www.w3.org/2000/svg">
<path d="M14.7487 3.57106C16.6021 0.270395 21.0215 -0.943056 24.6583 0.783669L48.8061 12.249C52.4429 13.9757 54.296 18.1673 52.9098 21.6898L43.0969 46.663C41.4161 50.9349 36.6609 52.8987 32.5153 50.9304L4.98929 37.8611C0.835368 35.8889 -0.64861 30.9627 1.59934 26.9602L14.7487 3.57106Z" fill="#010101"/>
<path d="M20.2847 32.837C22.2866 33.7875 24.6815 32.9416 25.6201 30.9647L27.2874 27.453L23.7424 25.7699C21.7822 24.8392 19.4234 25.6307 18.4466 27.5588C17.4699 29.4868 18.2828 31.8865 20.2847 32.837Z" fill="#4CB37D"/>
<path d="M21.8878 20.6985C22.8127 18.8582 25.1025 18.126 27.0126 19.0329L30.4742 20.6764L27.2584 27.4495L23.7217 25.7703C21.7615 24.8396 20.9428 22.5599 21.8878 20.6985Z" fill="#765FA6"/>
<path d="M25.1869 14.1592C26.0722 12.4023 28.2969 11.7209 30.157 12.6041L33.5435 14.212L30.4742 20.6764L27.021 19.0368C25.1108 18.1299 24.2937 15.9327 25.1869 14.1592Z" fill="#E95025"/>
<path d="M33.5435 14.212L36.9301 15.8199C38.7985 16.707 39.6727 18.87 38.8748 20.6581C38.0769 22.4463 35.8543 23.2309 33.9442 22.324L30.4826 20.6804L33.5519 14.216L33.5435 14.212Z" fill="#EE7265"/>
<path d="M35.9011 27.3519C35.06 29.2525 32.7719 30.0673 30.8201 29.1406C28.8683 28.2139 28.0078 25.9143 28.9028 24.0292C29.7978 22.1441 32.034 21.417 33.9525 22.3279C35.871 23.2388 36.7469 25.4843 35.9094 27.3559L35.9011 27.3519Z" fill="#46B7EA"/>
</svg>
