<svg width="58" height="58" viewBox="0 0 58 58" fill="none" xmlns="http://www.w3.org/2000/svg">
<path fill-rule="evenodd" clip-rule="evenodd" d="M14.2375 5.62254C17.1339 0.367333 23.7421 -1.54486 28.9973 1.35153L52.3775 14.2375C57.6327 17.1339 59.5449 23.7421 56.6485 28.9973L43.7625 52.3775C40.8661 57.6327 34.2579 59.5449 29.0027 56.6485L5.62254 43.7625C0.367333 40.8661 -1.54486 34.2579 1.35153 29.0027L14.2375 5.62254ZM36.3686 27.9257L36.3744 27.9248L31.1721 37.3638L31.1697 37.3584L31.1681 37.3613L31.1624 37.3485L31.1577 37.3569L27.5432 29.2145L27.5415 29.2107L27.5467 29.2099L36.36 27.9179L36.356 27.9251L36.37 27.9231L36.3686 27.9257ZM25.6414 24.9213L25.648 24.9197L25.6509 24.9263L37.9651 21.9669C38.0039 21.9556 38.043 21.946 38.0821 21.9381C38.1189 21.9306 38.1559 21.9245 38.1928 21.9199C38.4327 21.8897 38.6731 21.9194 38.894 22.002C38.955 22.0251 39.0145 22.0521 39.072 22.0831C39.2637 22.188 39.4337 22.3363 39.5661 22.5224L42.7112 26.9411C43.0109 27.3621 43.0677 27.9052 42.8705 28.3752C42.8502 28.4235 42.8273 28.471 42.8016 28.5176L35.1047 42.4828C35.0786 42.5301 35.0503 42.5755 35.0197 42.619C34.7276 43.0356 34.2387 43.2768 33.7235 43.2483L28.3081 42.9488C28.1219 42.9385 27.9437 42.8936 27.7806 42.8198C27.7516 42.8064 27.7231 42.7921 27.6952 42.7769C27.5327 42.6881 27.3882 42.5693 27.2694 42.427C27.167 42.3044 27.0838 42.1643 27.0248 42.0107C27.0097 41.9715 26.9962 41.9313 26.9843 41.8903L22.9104 29.8986L22.903 29.8997L22.9009 29.8936L22.8969 29.8942L22.8961 29.8917L17.8337 30.6338C17.6628 30.6589 17.4943 30.6385 17.3416 30.5808C17.313 30.5699 17.2849 30.5577 17.2574 30.5442C17.0342 30.4308 16.8554 30.2336 16.7696 29.9823L16.1988 28.3101C16.0105 27.7587 16.3374 27.1646 16.9039 27.0285L21.5471 25.9126L21.5556 25.9105L21.5529 25.9026L20.0167 21.3807C19.8293 20.829 20.157 20.2354 20.7237 20.1001L22.4423 19.6897C22.6679 19.6359 22.8965 19.6641 23.094 19.7574C23.2958 19.8568 23.4637 20.0247 23.5606 20.243L25.6365 24.9194L25.6402 24.9185L25.6414 24.9213Z" fill="#001E36"/>
<path d="M16.9039 27.0285C16.3374 27.1646 16.0105 27.7587 16.1988 28.3101L16.7696 29.9823C16.8554 30.2336 17.0342 30.4308 17.2574 30.5442C17.2849 30.5577 17.313 30.5699 17.3416 30.5808C17.4943 30.6385 17.6628 30.6589 17.8337 30.6338L22.8961 29.8917L22.8969 29.8942L22.9009 29.8936L21.5471 25.9126L16.9039 27.0285Z" fill="#31A8FF"/>
<path d="M27.5467 29.2099L25.6414 24.9213L21.5529 25.9026L21.5556 25.9105L21.5471 25.9126L22.9009 29.8936L27.5432 29.2145L27.5415 29.2107L27.5467 29.2099Z" fill="#31A8FF"/>
<path d="M22.4423 19.6897L20.7237 20.1001C20.157 20.2354 19.8293 20.829 20.0167 21.3807L21.5529 25.9026L25.6414 24.9213L25.6402 24.9185L25.6365 24.9194L23.5606 20.243C23.4637 20.0247 23.2958 19.8568 23.094 19.7574C22.8965 19.6641 22.6679 19.6359 22.4423 19.6897Z" fill="#31A8FF"/>
<path d="M37.9651 21.9669L25.6509 24.9263L25.648 24.9197L25.6414 24.9213L27.5467 29.2099L36.36 27.9179L36.356 27.9251L36.37 27.9231L38.9627 23.2189C39.3158 22.5783 38.7706 21.8366 38.0821 21.9381C38.043 21.946 38.0039 21.9556 37.9651 21.9669Z" fill="#31A8FF"/>
<path d="M42.7112 26.9411L39.5661 22.5224C39.4337 22.3363 39.2637 22.188 39.072 22.0831C39.0145 22.0521 38.955 22.0251 38.894 22.002C38.6731 21.9194 38.4327 21.8897 38.1928 21.9199C38.1559 21.9245 38.1189 21.9306 38.0821 21.9381C38.7706 21.8366 39.3158 22.5783 38.9627 23.2189L36.37 27.9231L41.7833 27.1311C42.5117 27.0245 43.0654 27.7153 42.8705 28.3752C43.0677 27.9052 43.0109 27.3621 42.7112 26.9411Z" fill="#31A8FF"/>
<path d="M36.3744 27.9248L31.1721 37.3638L31.1697 37.3584L31.1681 37.3613L33.3896 42.3616C33.6879 43.0332 34.5653 43.1333 35.0197 42.619C35.0503 42.5755 35.0786 42.5301 35.1047 42.4828L42.8016 28.5176C42.8273 28.471 42.8502 28.4235 42.8705 28.3752C43.0654 27.7153 42.5117 27.0245 41.7833 27.1311L36.37 27.9231L36.3686 27.9257L36.3744 27.9248Z" fill="#31A8FF"/>
<path d="M28.3081 42.9488L33.7235 43.2483C34.2387 43.2768 34.7276 43.0356 35.0197 42.619C34.5653 43.1333 33.6879 43.0332 33.3896 42.3616L31.1681 37.3613L28.5752 42.0659C28.223 42.7048 27.3093 42.6422 27.0248 42.0107C27.0838 42.1643 27.167 42.3044 27.2694 42.427C27.3882 42.5693 27.5327 42.6881 27.6952 42.7769C27.7231 42.7921 27.7516 42.8064 27.7806 42.8198C27.9437 42.8936 28.1219 42.9385 28.3081 42.9488Z" fill="#31A8FF"/>
<path d="M22.9104 29.8986L26.9843 41.8903C26.9962 41.9313 27.0097 41.9715 27.0248 42.0107C27.3093 42.6422 28.223 42.7048 28.5752 42.0659L31.1681 37.3613L31.1624 37.3485L31.1577 37.3569L27.5432 29.2145L22.9009 29.8936L22.903 29.8997L22.9104 29.8986Z" fill="#31A8FF"/>
</svg>
