<svg width="32" height="38" viewBox="0 0 32 38" fill="none" xmlns="http://www.w3.org/2000/svg">
<path d="M16.0698 2.09067C14.6553 3.90625 14.06 7.61685 14.06 8.99841C14.0601 10.38 15.0151 10.0346 15.9863 8.8364C17.5653 6.44025 20.0375 4.50223 20.3891 4.14465C20.7406 3.78708 23.0187 1.28224 21.6042 0.374458C20.1896 -0.533327 17.4843 0.275079 16.0698 2.09067Z" fill="white"/>
<path d="M5.09912 11.1395C-1.15549 18.738 -1.85877 25.9224 4.11741 34.9025C8.13231 40.9355 14.0614 36.9565 10.7967 31.4486C10.7967 31.4486 7.98439 26.9586 7.98439 25.2317C7.98439 23.5047 8.26298 21.1558 8.96613 21.8465C9.66928 22.5373 18.1789 34.5571 18.1789 34.5571C21.3427 38.7018 24.155 39.3118 27.6704 35.2479C33.0539 29.0243 32.4114 22.0445 31.05 18.4883C30.9172 18.1413 30.4326 17.9052 30.2321 17.9602C25.6621 17.6148 24.6075 15.5425 25.6621 11.3978C25.888 10.51 25.0613 10.1587 24.8861 10.085C22.4253 9.04883 18.91 10.085 18.9101 14.2297C18.9101 15.9566 22.0739 18.3705 22.8498 21.0687C23.7143 24.0748 22.6761 27.3727 22.3245 26.682C21.9729 25.9912 10.7238 11.1395 10.7238 11.1395C9.13992 9.32549 6.32764 9.67086 5.09912 11.1395Z" fill="white"/>
</svg>
