<svg width="18" height="27" viewBox="0 0 18 27" fill="none" xmlns="http://www.w3.org/2000/svg">
<path d="M4.50105 27C6.98456 27 9.00015 24.984 9.00015 22.5V18H4.50105C2.01755 18 0.00195312 20.016 0.00195312 22.5C0.00195312 24.984 2.01755 27 4.50105 27Z" fill="white"/>
<path d="M0.00195312 13.5C0.00195312 11.016 2.01755 9 4.50105 9H9.00015V18H4.50105C2.01755 18 0.00195312 15.984 0.00195312 13.5Z" fill="white"/>
<path d="M0.00197029 4.5C0.00197029 2.016 2.01757 0 4.50107 0H9.00017L9.00015 9H4.50105C2.01755 9 0.00197029 6.984 0.00197029 4.5Z" fill="white"/>
<path d="M9.00017 0H13.4993C15.9828 0 17.9984 2.016 17.9984 4.5C17.9984 6.984 15.9828 9 13.4993 9H9.00015L9.00017 0Z" fill="white"/>
<path d="M17.9984 13.5C17.9984 15.984 15.9828 18 13.4993 18C11.0157 18 9.00015 15.984 9.00015 13.5C9.00015 11.016 11.0157 9 13.4993 9C15.9828 9 17.9984 11.016 17.9984 13.5Z" fill="white"/>
</svg>
