<svg width="20" height="23" viewBox="0 0 20 23" fill="none" xmlns="http://www.w3.org/2000/svg">
<path d="M3.19533 10.1266C2.5355 10.4346 0.789103 11.8209 0.452742 12.2316C0.103425 12.6424 -3.65842e-05 12.0006 0.362174 10.9352C0.646708 10.0752 1.37126 8.90713 2.58726 7.90596C3.29872 7.32834 4.86411 6.49404 5.82137 6.00622C6.01546 5.9035 8.52515 4.85097 10.7632 4.3247C10.9573 4.27334 10.5304 4.64559 10.4656 4.85097C10.1293 5.82649 3.41514 10.011 3.41514 10.011L3.19533 10.1266ZM12.6519 21.8971C12.7683 22.5903 12.6649 22.6416 11.9405 22.7315C11.216 22.8213 10.6856 22.5517 10.4915 22.3721C10.2975 22.1923 10.2587 21.7945 10.4527 21.4351C10.5692 21.204 10.6856 21.127 10.7504 20.8446C10.815 20.5751 10.8668 20.5108 10.9185 20.4082C10.9702 20.3183 10.9832 20.2284 10.9961 19.5995C11.009 18.9706 10.9961 17.7896 11.0608 17.289C11.1255 16.7756 13.3636 17.5201 13.3636 17.5201C13.3636 17.5201 12.8331 18.8293 12.6908 19.1502C12.5485 19.4712 12.5615 20.0872 12.5615 20.2156C12.5615 20.344 12.5098 20.6006 12.4709 20.6135C12.4321 20.6263 12.6003 20.96 12.5226 21.1526C12.4708 21.3323 12.639 21.7945 12.6519 21.8971ZM13.5058 2.27094C13.4281 1.78318 13.5058 0.820394 13.6092 0.666441C13.9327 0.229977 15.6403 0.178681 16.0026 0.692089C16.1578 0.923113 16.1448 1.46223 16.119 1.80883C16.0931 2.15537 16.0026 2.89987 15.9896 3.14381C15.9767 3.32354 14.1009 3.60586 13.6869 3.1181C13.5704 2.98979 13.5058 2.27094 13.5058 2.27094ZM17.3091 20.652C18.0983 21.2168 18.7063 21.3195 19.1073 21.5249C19.5083 21.7303 19.4049 22.1282 18.7321 22.2437C18.1888 22.3464 17.335 22.141 16.7658 22.141C16.1966 22.141 14.9288 22.2052 14.5924 21.9742C14.2043 21.7047 14.3725 21.204 14.3725 21.204C14.476 20.9217 14.7347 20.2926 14.6571 19.7792C14.5794 19.2658 14.4759 18.9834 14.2819 18.5084C14.0879 18.0335 13.9456 16.8655 14.1267 16.8013C14.3079 16.7371 14.256 16.8013 14.4889 16.8526C14.7218 16.9039 14.9805 16.9809 15.4851 16.9809C15.9896 16.9809 16.5458 16.9039 16.7399 16.8654C16.934 16.8269 17.0892 16.7884 17.0245 17.1863C16.9598 17.5842 16.7658 18.3287 16.7528 18.9063C16.7399 19.484 16.7399 20.1515 16.7787 20.267C16.8175 20.3825 17.1022 20.5108 17.3091 20.652Z" fill="#59A9C6"/>
<path d="M14.5411 3.55463C13.1181 4.77409 10.3626 5.10777 6.27466 6.67377C5.22677 7.07167 2.43249 8.26542 1.75977 9.51053C4.02366 8.21413 4.86456 9.99829 5.04563 11.8338C5.21375 13.5538 6.08057 14.4524 8.30565 14.401C10.5955 14.3497 11.294 15.6718 11.9279 17.225C13.1568 11.2818 15.1232 10.1267 16.3909 9.11264C19.0818 6.9433 15.7701 3.11817 14.5411 3.55463Z" fill="white"/>
<path d="M14.5411 3.55444C11.1258 4.73534 7.74935 5.03058 3.77786 7.45659C2.8335 8.03421 0.841248 9.34341 0.453125 11.8465C1.90197 10.2548 5.25255 8.25244 9.35347 6.98168C11.4233 6.33984 12.937 5.9163 14.7739 5.21031C14.6446 4.38874 14.6446 4.06785 14.5411 3.55444Z" fill="#F0EFEF"/>
<path d="M18.9 10.5887C18.9 10.5887 18.6542 11.4231 18.1626 11.6927C18.1626 11.6927 17.8004 11.8211 17.076 11.4232C16.869 11.3076 16.7138 10.9098 16.7267 10.7813C16.7396 10.4732 16.9337 10.3321 16.9337 10.3321C16.9337 10.3321 17.1407 9.98547 17.3865 9.99832C17.6323 10.0111 18.0463 10.0496 18.1757 9.93411C18.292 9.80574 18.9259 10.1651 18.9 10.5887ZM13.6219 2.51492C13.6219 2.51492 13.5702 3.16962 13.4796 3.58031C13.4667 3.65738 13.0786 3.69582 12.7939 3.81139C13.3373 5.35168 16.6103 5.33883 17.0372 4.58154C16.8302 4.44038 16.4162 4.22215 16.2222 4.14514C16.0281 4.06807 16.0411 4.08092 16.0281 3.72153C16.0152 3.36208 15.9893 2.69465 15.9634 2.51492C15.9375 2.3352 13.9323 2.3352 13.6219 2.51492Z" fill="#59A9C6"/>
<path d="M13.7519 2.51489C13.7519 2.51489 13.7519 2.88714 13.7131 3.24653C13.7002 3.4134 13.6873 3.51606 13.6614 3.64443C13.6484 3.7215 14.1012 4.02947 14.2306 4.70981C14.8516 6.08323 16.2876 5.40295 16.8826 4.74831C16.6756 4.60709 16.3393 4.41457 15.9512 4.26055C15.7571 4.18348 15.8477 4.01667 15.8348 3.65728C15.8218 3.29789 15.7701 2.77156 15.7442 2.57904C15.7182 2.38652 14.0624 2.33516 13.7519 2.51489Z" fill="#F0EFEF"/>
<path d="M13.623 2.51492C13.623 2.51492 13.61 2.74601 13.5713 3.01554C13.7394 3.18235 13.9593 3.41343 14.1276 3.55466C14.244 3.65738 14.5285 3.64452 14.7874 3.64452C15.0202 3.64452 15.2272 3.67017 15.3177 3.61887C15.5248 3.51615 15.8223 3.25948 15.9905 3.0669C15.9776 2.83587 15.9646 2.61764 15.9517 2.51492C15.9386 2.3352 13.9334 2.3352 13.623 2.51492Z" fill="#59A9C6"/>
<path d="M14.7993 3.49037C14.644 3.49037 14.4629 3.47758 14.3206 3.45186C14.2559 3.43907 14.1913 3.40057 14.1395 3.37486C14.0489 3.31064 13.9584 3.2337 13.855 3.15662C13.6479 3.00261 13.635 2.91274 13.635 2.8743C13.7256 2.06559 13.6091 1.38531 13.6091 1.38531C13.6091 1.38531 13.5185 1.03871 14.0101 0.948848C14.5017 0.858984 14.7993 0.846191 14.7993 0.846191C14.7993 0.846191 15.1098 0.846191 15.5884 0.948848C16.08 1.03871 15.9894 1.38531 15.9894 1.38531C15.9894 1.38531 15.873 2.06559 15.9636 2.8743C15.9636 2.91274 15.9507 3.00261 15.7436 3.15662C15.5625 3.28499 15.4202 3.42615 15.278 3.45186C15.1356 3.47758 14.9545 3.49037 14.7993 3.49037Z" fill="#59A9C6"/>
<path d="M14.7998 0.512451C13.946 0.512451 13.7777 0.743476 13.5319 1.00021C13.4802 1.06436 13.519 1.44947 13.6096 2.27097H13.726C13.726 2.27097 13.6484 2.03988 13.6613 1.77036C13.6743 1.50083 13.726 1.51368 13.6872 1.44947C13.6355 1.3724 13.5319 1.24403 13.7648 1.11572C13.9977 0.987356 14.3599 1.21838 14.7998 1.23124C15.2396 1.21838 15.6148 0.987356 15.8476 1.11572C16.0804 1.24403 15.977 1.3724 15.9253 1.44947C15.8735 1.52648 15.9382 1.50076 15.9511 1.77036C15.964 2.03988 15.8864 2.27097 15.8864 2.27097H16.0028C16.0804 1.44947 16.1322 1.09008 16.0934 1.02586C15.8735 0.743475 15.6536 0.525244 14.7998 0.512451ZM18.9006 10.6272C18.9006 10.6272 18.6548 11.4102 18.1762 11.6797C18.0727 11.6284 18.0856 11.5514 17.9951 11.4358C17.9692 11.3974 17.8786 11.3716 17.8399 11.3332C17.801 11.2947 17.814 11.2304 17.7493 11.1791C17.6975 11.1278 17.6587 11.1663 17.607 11.1278C17.5553 11.0765 17.5422 11.0123 17.5035 10.9738C17.4776 10.9481 17.3741 10.9353 17.3483 10.9096C17.2836 10.8454 16.7144 10.7299 16.7403 10.6015C16.792 10.4089 16.8955 10.2678 16.8955 10.2678C16.8955 10.2678 17.1413 9.90839 17.387 9.92118C17.6328 9.93404 17.8657 9.9854 17.9951 9.86988C18.1374 9.74145 18.9395 10.2164 18.9006 10.6272Z" fill="#59A9C6"/>
<path d="M17.2185 4.95382C17.2185 4.95382 18.0335 4.76124 18.5898 5.28757C19.1461 5.82669 19.1073 6.49411 18.9392 6.90486C19.0814 7.07173 19.3402 7.53378 19.1461 8.08576C19.9999 8.80454 19.6248 9.90849 18.8615 10.6401C18.8615 10.6401 18.6804 9.97265 17.956 9.93414C17.9818 9.67747 17.2833 9.47203 17.6067 8.80454C17.1151 8.68903 17.128 8.35529 17.0504 7.9446C16.9857 7.53378 17.2185 4.95382 17.2185 4.95382Z" fill="#59A9C6"/>
<path d="M16.9208 5.31313C16.9208 5.31313 17.8652 4.83822 18.4215 5.37734C18.9777 5.91646 18.8225 6.50688 18.6543 6.91763C18.7966 7.08444 19.133 7.55947 18.926 8.12418C18.8872 8.25254 18.6026 8.25254 18.3955 8.58629C18.913 8.29099 19.2364 8.36806 19.3529 8.74024C19.534 9.31787 19.1329 10.011 18.7837 10.3961C18.7837 10.3832 18.7707 10.3704 18.7707 10.3576C18.719 10.5502 18.6543 10.9224 18.2662 11.3331C18.0721 11.5385 17.9169 11.5128 17.697 11.4615C17.4383 11.3973 17.3477 11.2817 16.9855 11.0892C16.7785 10.9737 16.8949 10.8325 16.8949 10.717C16.8949 10.6913 16.9208 10.6528 16.9596 10.6015C16.9855 10.5373 17.0631 10.4347 17.1795 10.3191C17.1795 10.3191 17.3477 10.0881 17.5936 10.1009C17.8394 10.1137 18.098 10.0624 18.1628 9.99821C18.1628 9.54895 17.6453 9.5361 17.8264 8.76595C17.8394 8.72745 17.9041 8.66323 18.111 8.63758C17.8005 8.57337 17.6582 8.56051 17.4383 8.3552C17.2831 8.21404 17.1666 8.03431 17.1278 7.80329C17.0502 7.40539 16.9208 5.31313 16.9208 5.31313Z" fill="#F0EFEF"/>
<path d="M14.1914 4.50438C14.1138 4.40167 13.7128 3.88826 12.9495 3.68288C12.7296 3.61867 12.5873 3.79839 12.3674 3.92676C12.3027 3.88826 12.0181 3.75989 11.8629 3.84969C11.7077 3.93949 11.6042 4.02942 11.4489 4.09357C11.3712 4.05507 11.1643 4.05507 10.9961 4.11922C10.8279 4.17058 10.5692 4.28609 10.3234 4.61983C10.1682 5.17181 13.0659 4.761 13.0659 4.761L14.1914 4.50438Z" fill="#59A9C6"/>
<path d="M14.217 4.5045C13.803 4.36328 13.8677 3.88838 12.9492 3.81137C12.768 3.79851 12.6516 3.93967 12.5222 4.02954C12.587 4.09375 12.6516 4.19641 12.6904 4.29906C12.574 4.17076 12.367 4.00382 12.16 3.96532C11.9659 3.92688 11.8366 4.06804 11.6296 4.17076C11.6683 4.2092 11.7072 4.27342 11.7589 4.35049C11.5778 4.23497 11.4484 4.19647 11.2027 4.28627C11.0345 4.33757 10.7111 4.47879 10.4653 4.82539C10.3101 5.37737 13.0785 4.76118 13.0785 4.76118L14.217 4.5045Z" fill="white"/>
<path d="M16.6491 4.70975C16.6491 4.70975 16.6491 4.56853 16.6361 4.44022C16.6361 4.41458 16.5327 4.35036 16.5327 4.32471L16.5068 4.299C16.5068 4.299 16.7138 4.18349 16.869 4.2477C17.0372 4.299 17.1277 4.51723 17.1277 4.51723C17.4253 4.41458 17.4511 4.53009 17.5935 4.6841C17.904 4.61989 17.9427 4.7354 18.1368 5.01785C18.1368 5.01785 17.904 4.97934 17.4512 5.05629C17.0113 5.12044 16.6491 4.6969 16.6491 4.70975Z" fill="#59A9C6"/>
<path d="M16.5979 4.64549C16.5979 4.64549 16.6756 4.58127 16.6496 4.56842C16.7919 4.49141 16.986 4.40161 17.0766 4.64549C17.3741 4.54277 17.4129 4.68399 17.5552 4.83807C17.9174 4.6712 17.9433 4.87651 17.9692 4.96638C17.8528 4.96638 17.6846 4.97923 17.4517 5.00488C17.0119 5.0691 16.585 4.63263 16.5979 4.64549Z" fill="white"/>
<path d="M12.1993 4.32471C12.1993 4.32471 12.9367 4.58138 13.5577 4.54288C14.1786 4.49158 15.2394 4.44022 15.8086 4.77396C15.8086 4.77396 16.3908 4.56852 16.9341 4.70975C17.4775 4.85091 18.4736 5.77513 18.1761 6.75065C18.1502 6.81487 17.982 6.91752 17.788 6.98174C17.788 6.98174 17.8915 7.41814 17.7104 7.77753C17.5292 8.12413 17.1282 8.79162 17.1153 9.71578C17.1024 9.8698 17.0765 10.1907 17.0506 10.3447C16.0415 10.3063 14.4891 9.93395 12.9626 9.95966C12.9755 9.79285 12.9885 9.69013 13.0014 9.52326H13.0402C12.9626 9.09965 12.9367 8.88142 12.859 8.56053C12.3675 8.2525 11.85 7.89311 11.4102 7.21276C10.9833 6.53242 12.1993 4.32471 12.1993 4.32471ZM17.1929 11.2561C17.1929 11.2561 17.995 14.1057 17.0506 15.2995C17.0506 15.2995 17.1929 15.8514 16.8695 16.4419C16.8177 16.6986 16.753 16.9296 16.7142 17.1863C16.5461 18.2517 16.2614 18.701 16.1838 20.4081L15.4075 20.3953C15.4075 20.3953 15.317 19.1631 15.0453 18.5084C14.8902 18.1363 14.282 17.6356 14.308 17.135C14.3339 16.7499 14.4115 16.429 15.0713 15.9156C15.123 15.1711 14.3727 14.4651 14.4891 11.6925L17.1929 11.2561Z" fill="#59A9C6"/>
<path d="M16.9602 11.1406C17.1672 12.4498 17.6458 14.3881 16.7791 15.3379C16.8302 15.5787 16.8346 15.827 16.792 16.0695C16.7661 16.2235 16.7144 16.3904 16.6497 16.5701C16.5203 16.8782 16.4686 17.3274 16.4298 17.5969C16.2616 18.6623 16.2616 18.7138 16.184 20.4209L15.4077 20.4081C15.4077 20.4081 15.3172 19.1758 15.0455 18.5212C14.8904 18.149 14.5669 17.8281 14.541 17.3275C14.5152 16.9424 14.7868 16.1723 15.4337 16.1979C15.3949 14.6448 14.6704 14.9528 14.4764 11.7182L16.9602 11.1406ZM12.1995 4.32471C12.1995 4.32471 12.4841 4.41457 12.7946 4.44022C13.1051 4.46587 13.4414 4.44022 13.7389 4.42736C14.3599 4.37607 15.2396 4.31185 15.8218 4.6456C15.8218 4.6456 16.1452 4.54288 16.4945 4.56852C16.6497 4.58138 16.805 4.70975 16.9861 4.76111C17.5553 4.90227 18.0986 5.83928 17.8528 6.6865C17.8269 6.75071 17.6458 6.6865 17.4388 6.75071C17.4775 6.93044 17.5035 7.34119 17.2964 7.77759C17.0766 8.21406 16.792 8.77883 16.8437 9.85707C15.4853 9.79285 14.8773 9.70305 13.5319 9.63883C13.4155 9.16387 13.3378 8.68896 13.3249 8.44508C13.506 8.35522 13.6094 8.27827 13.7518 8.12419C13.3638 8.18841 13.2085 8.1627 12.9756 8.03433C12.7427 7.90596 12.3288 7.49521 12.1218 7.22568C12.0959 7.19997 11.9537 7.62352 11.6303 7.63643C11.5138 7.46956 12.0054 6.99459 11.9148 6.81493C11.5915 6.16024 12.1995 4.32471 12.1995 4.32471Z" fill="#F0EFEF"/>
<path d="M17.0632 10.0751C17.0632 10.0751 17.0891 10.5373 17.0891 10.6528C17.0891 10.7811 17.1926 11.1662 17.2055 11.3459C17.0632 11.5898 16.4423 12.1418 15.3168 12.3471C14.2042 12.5782 12.7295 10.8454 12.7295 10.8454C12.7683 10.6785 12.8977 10.1907 12.9882 9.93399C13.0012 9.90834 13.027 9.84412 13.027 9.81848C13.1435 9.6516 17.0632 10.0751 17.0632 10.0751Z" fill="#59A9C6"/>
<path d="M16.7783 10.1136C16.7783 10.4345 16.83 10.6656 16.8689 10.871C16.9336 11.2432 17.037 11.4871 17.037 11.731C17.037 12.4754 16.0539 12.347 15.2259 12.3727C14.1133 12.6038 13.1689 10.871 13.1689 10.871C13.2466 10.5757 13.2983 10.242 13.4147 9.95959C13.4276 9.80558 13.4535 9.61306 13.4664 9.52319C15.0447 9.52319 16.1573 9.61306 16.8041 9.67715C16.83 9.81837 16.8042 10.0623 16.7783 10.1136Z" fill="#F0EFEF"/>
<path d="M15.5369 11.7695C15.5369 11.7695 14.8513 10.2548 12.7943 10.7042C12.3028 12.0776 11.643 13.6564 12.0699 15.3636C11.643 15.9412 11.1514 16.2622 11.1514 17.3275C11.1514 18.3929 11.2031 18.5726 11.2031 18.5726L12.7167 18.6497C12.7167 18.6497 13.2083 18.0207 13.4023 17.3404C13.4541 17.1478 13.5058 16.8013 13.467 16.4034C13.5187 16.3264 13.7387 16.1467 13.7646 15.8001C13.7646 15.8001 14.502 15.4151 14.9289 14.4781C15.33 13.6307 15.2264 12.8991 15.5369 11.7695Z" fill="#59A9C6"/>
<path d="M15.537 11.7694C15.4982 11.6282 14.9807 10.242 13.0661 10.6527C11.9406 13.6306 12.3546 14.8629 12.5227 15.402C11.7594 16.3646 11.4102 16.57 11.5655 18.5211H12.5746C13.0402 17.7895 13.1438 17.5199 13.1696 16.5572C13.1696 16.5187 13.0273 16.6342 12.9238 16.7626C13.0015 16.3647 13.2214 16.2877 13.3896 16.0438C13.4672 15.9411 13.5318 15.7871 13.5318 15.5817C14.4374 14.9784 14.7737 14.2211 14.9678 13.4381C15.1231 12.899 15.3041 12.0133 15.537 11.7694Z" fill="#F0EFEF"/>
<path d="M12.3408 9.70288C12.3408 9.70288 12.6901 9.71567 13.0006 9.81839C13.2981 9.92105 13.2981 9.9852 13.4146 10.1136C13.531 10.2421 13.8156 10.4345 13.7639 10.627C13.738 10.7298 13.6733 10.7554 13.5827 10.8453C13.5439 10.8838 13.2593 11.1918 13.1946 11.2303C13.1558 11.256 13.104 11.2945 13.0652 11.3202L12.8712 11.4485C12.7418 11.5128 12.6513 11.5513 12.509 11.5384C12.509 11.5384 12.1856 11.5256 11.9785 11.3074C11.9785 11.3074 11.9527 11.2047 12.0045 11.1534C12.0045 11.1534 11.7327 10.9223 11.6551 10.7683C11.5775 10.6143 11.5775 10.3961 11.6293 10.2806C11.6551 10.1649 12.1596 9.84404 12.3408 9.70288ZM12.6642 22.1922L12.6254 22.5132C12.6254 22.5132 12.509 22.6544 11.6422 22.6416C10.7625 22.6287 10.5297 22.3592 10.4521 22.218L10.4004 21.8842C10.4004 21.8842 10.5686 21.6403 10.6074 21.6403C10.892 21.666 11.8623 22.0511 12.535 22.1537C12.5995 22.1537 12.6124 22.1794 12.6642 22.1922ZM14.54 21.5376C14.54 21.6788 14.527 21.6788 14.527 21.82C14.6823 21.9355 15.0704 21.9997 15.8078 21.9868C16.8815 21.9612 17.8776 22.3078 19.0936 22.1023L19.1066 21.8713L18.9902 21.8585L14.6823 21.5119L14.54 21.5376Z" fill="#59A9C6"/>
<path d="M15.4847 21.9869H15.8081C16.5067 21.9612 17.1665 22.1152 17.878 22.1537C18.2531 22.1409 18.7189 22.051 18.68 21.7815L15.0061 21.4734C14.7861 21.7173 14.9542 21.9226 15.4847 21.9869ZM11.2673 16.5829C11.3838 16.6599 12.1729 17.122 13.4536 17.0578C13.4277 17.3017 13.4407 17.7767 12.8715 18.611C12.5869 19.0217 12.341 19.7406 12.2893 20.6519C12.3023 20.8573 12.4187 21.037 12.2635 21.3066C12.3152 21.4734 12.5222 21.8071 12.6257 22.0125C12.7291 22.2179 12.7809 22.449 12.0952 22.4618C11.3967 22.4746 10.2712 22.3976 10.4264 21.8586C10.5041 21.5762 10.724 21.2809 10.7499 21.1654C10.7758 21.0498 10.7758 20.7033 10.9956 20.4722C11.1897 19.8304 11.125 19.2143 11.0863 18.6367C11.0216 18.0334 11.0086 17.0707 11.2673 16.5829ZM12.4705 6.12161C13.389 4.90214 12.6127 3.92669 11.138 4.22186C10.5429 4.33738 9.94788 4.74819 9.90901 5.49262C9.71498 5.51827 9.27516 5.54392 9.05521 6.33978C8.8871 6.9559 8.79653 7.07142 8.49891 7.37945C8.30488 7.59768 8.51187 8.04694 8.65414 8.36789C9.13283 9.47178 10.6076 9.57443 11.6037 10.4088C11.9401 10.3189 12.2893 9.94674 12.3928 9.70286C11.5519 8.71442 11.733 8.32938 11.3967 7.81598C11.7589 7.68754 12.5869 7.18699 12.4705 6.12161Z" fill="#59A9C6"/>
<path d="M12.2893 6.0446C12.341 5.96752 12.4315 5.80072 12.4704 5.7365C12.4834 5.72364 12.6256 5.96752 12.6386 5.95473C12.9878 5.3899 13.0784 4.5684 12.6773 4.49139C12.5868 4.47853 12.4186 4.44009 12.2763 4.38867C12.0176 4.29881 11.7848 4.29881 11.3708 4.37588C10.8016 4.47853 10.2324 4.88928 10.2324 5.47976C10.2324 5.51827 10.6333 5.63378 10.7498 6.10875C10.5557 5.83916 10.2193 5.54392 9.81832 5.80065C9.39139 6.07018 9.61134 6.68631 9.04214 7.32809C8.84805 7.54632 8.87396 7.80305 9.08088 8.31646C9.41724 9.12517 11.0085 9.56157 11.8752 10.3317C12.0822 10.2419 12.2245 10.0365 12.328 9.88246C11.7459 9.27919 11.513 8.71436 11.3448 8.30361C11.1379 7.8287 10.905 7.55917 10.4522 7.19965C10.6851 7.28952 10.8662 7.37938 10.9696 7.45639C11.086 7.5334 11.2542 7.54625 11.4095 7.49489C11.9659 7.3025 12.2634 6.53229 12.2893 6.0446Z" fill="#F0EFEF"/>
<path d="M17.917 6.25004C17.8782 6.7378 17.516 6.49392 17.322 6.40406C16.9339 6.23719 16.5457 6.12168 16.093 6.12168C15.6402 6.12168 15.058 6.16018 14.5536 6.28855C13.855 6.48107 13.6479 6.46828 13.3375 6.3142C13.027 6.14732 12.4838 5.73657 12.4838 5.73657C12.4838 5.73657 12.4708 5.86494 12.6002 6.03181C12.7683 6.23719 13.1435 6.49392 13.648 6.66073C13.8938 6.7378 14.0879 6.68638 14.3078 6.63508C15.4592 6.3527 16.6752 6.30134 17.6972 6.91747C17.7489 6.94312 17.9301 6.86611 18.0077 6.7506C18.1111 6.58379 17.917 6.25004 17.917 6.25004Z" fill="#59A9C6"/>
<path d="M12.0312 11.1406C12.1347 11.2048 12.2641 11.2433 12.4064 11.3589C12.4064 11.3589 12.2899 11.3589 12.2382 11.3076C12.1735 11.2691 12.0441 11.1535 12.0312 11.1406Z" fill="#0A1825"/>
<path d="M15.7693 0.961576C15.7305 0.846064 15.4459 0.640625 14.7862 0.640625C14.0746 0.640625 13.8677 0.858857 13.8548 0.974369C13.8548 1.01287 13.803 1.42369 13.79 1.5905C13.79 1.5905 13.79 1.79587 13.8029 2.10391C13.8159 2.30928 13.8677 2.42479 13.8935 2.69438C13.9193 2.97671 13.997 3.15643 14.1393 3.38752C14.204 3.42596 14.2557 3.46453 14.3204 3.47738C14.5792 3.52868 15.032 3.54154 15.2777 3.47738C15.42 3.43888 15.6012 3.195 15.64 2.97677C15.6917 2.70724 15.7434 2.51466 15.7564 2.34785C15.7822 2.18104 15.7952 1.80873 15.8081 1.70601C15.8469 1.42369 15.7822 0.987225 15.7693 0.961576Z" fill="#F0EFEF"/>
<path d="M14.4112 16.8269C14.4112 16.8269 15.0968 17.1221 16.7915 16.8654C16.7915 16.8654 16.3129 19.2529 16.5328 20.4466C16.5328 20.4466 16.7527 20.7547 18.3828 21.3451C18.3828 21.3451 19.1072 21.5248 19.0813 21.8843C19.0813 21.8843 19.1072 21.9613 18.2275 21.9356C17.3479 21.9099 16.5199 21.7559 15.9377 21.7559C15.3556 21.7559 14.7346 21.7815 14.6312 21.6147C14.5147 21.4607 14.657 21.0627 14.8252 20.8316C15.0064 20.5878 14.9546 20.408 14.9417 19.9717C14.9027 18.8293 14.023 17.6484 14.4112 16.8269Z" fill="#59A9C6"/>
<path d="M14.2686 17.0452C14.1781 17.1735 14.2815 17.6612 14.4109 18.1362C14.5403 18.6111 14.8249 18.8936 14.8896 19.6765C14.9542 20.4466 14.9672 20.5494 14.7473 20.9986C14.5273 21.4478 14.4627 21.8586 15.2259 21.8714C15.9891 21.8843 16.4031 21.8586 17.1793 21.9741C17.9556 22.0897 18.2272 22.1282 18.6541 22.064C19.0811 21.9999 19.1716 21.8586 18.9905 21.7303C18.8094 21.6019 18.059 21.4607 17.7356 21.2039C17.4251 20.9729 16.5455 20.5878 16.5326 20.4851C16.4938 20.1385 16.4808 18.8806 16.5455 18.4699C16.6102 18.0591 16.7007 17.4687 16.7266 17.3146C16.7525 17.1606 16.8818 17.0066 16.6619 17.0579C16.442 17.1092 15.6141 17.2248 14.9931 17.1863C14.3722 17.1478 14.3075 17.0066 14.2686 17.0452Z" fill="white"/>
<path opacity="0.3" d="M14.7086 21.0115C14.9285 21.1142 15.252 21.1912 15.4978 21.1912C15.4978 21.1912 15.4071 21.6148 15.5495 21.8715C15.6917 22.1282 14.5145 21.9742 14.5145 21.9742L14.4629 21.0629L14.7086 21.0115ZM18.1368 22.1154C18.3438 22.0512 18.4862 21.8201 18.318 21.602C18.1368 21.3837 17.9816 21.3452 18.2145 21.3324C18.4474 21.3196 19.3011 21.833 19.3011 21.833L18.8613 22.2309L18.1368 22.1154ZM14.23 17.5458C14.5275 17.6485 14.9803 17.6741 15.3684 17.6613C15.7565 17.6485 16.3386 17.597 16.7139 17.4687C17.089 17.3404 16.9337 17.6099 16.9337 17.6099L16.7267 17.8025C16.7267 17.8025 16.2352 17.995 15.4331 17.9822C14.4888 17.9694 14.2041 17.8667 14.2041 17.8667L14.23 17.5458ZM14.2558 18.1876C14.5534 18.2903 15.0061 18.316 15.3943 18.3031C15.7823 18.2903 16.2998 18.2903 16.675 18.1491C16.8302 18.0978 16.7397 18.316 16.7397 18.316L16.675 18.4315C16.675 18.4315 16.1704 18.6112 15.3813 18.5983C14.4369 18.5855 14.2688 18.5084 14.2688 18.5084L14.2558 18.1876Z" fill="#59A9C6"/>
<path d="M13.4023 9.18945C13.4023 9.27932 14.4114 9.77987 14.9677 9.88259C15.524 9.98525 16.6883 9.88259 16.8693 9.84409L16.8434 10.0238C16.8434 10.0238 15.4593 10.2292 14.3985 9.9468C13.3376 9.66442 13.4541 9.6002 13.4541 9.6002L13.4023 9.18945Z" fill="#59A9C6"/>
<path d="M11.2422 20.1385C11.3974 20.2156 11.9537 20.3567 12.3159 20.2797C12.3676 20.2669 12.3159 19.394 12.4583 18.9961C12.6653 18.4441 13.0016 17.9949 13.1568 17.0194C12.6134 16.9681 11.9925 16.8268 11.6691 16.7241C11.2552 17.9821 11.3975 19.0603 11.2422 20.1385ZM12.109 20.9472C12.1996 20.9729 12.2642 21.0755 12.2902 21.0114C12.3419 20.8959 12.1996 20.6777 12.1866 20.5237V20.5108C12.0702 20.4082 11.2811 20.3953 11.3328 20.4466C11.2423 20.6135 11.1 20.5878 11.0483 20.9216C11.0224 21.0884 11.2294 20.9472 11.4234 20.9344C11.0741 21.1654 10.6731 21.4607 10.6084 21.7174C10.5308 22.0768 10.6602 22.1795 11.0483 22.3721C11.3847 22.4491 11.7857 22.4619 12.0961 22.4491C12.4454 22.3848 12.5102 22.218 12.4066 21.987C12.2513 21.6404 12.1478 21.1911 12.109 20.9472Z" fill="#F0EFEF"/>
<path d="M12.2505 4.27344C12.6775 4.51732 13.2726 4.45317 13.4925 4.44031C13.5442 4.44031 14.0617 4.35045 14.0876 4.36324C14.1393 4.37609 14.1393 4.4146 14.1393 4.4146C14.1393 4.4146 13.9452 4.51725 13.5054 4.5429C13.0914 4.56855 12.5999 4.5429 12.3282 4.4146C12.0048 4.27344 12.2505 4.27344 12.2505 4.27344ZM16.649 4.51732C16.7266 4.56861 17.2312 4.7612 17.4511 4.99222C17.6451 5.19766 17.5417 5.18481 17.5028 5.13345C17.4511 5.06923 17.05 4.7997 16.8948 4.73555C16.7396 4.6714 16.5455 4.55582 16.5455 4.53017C16.5455 4.50452 16.649 4.51732 16.649 4.51732Z" fill="#59A9C6"/>
<path d="M12.186 9.84405C12.5612 9.8184 12.9493 9.90826 13.1951 10.1649C13.3245 10.2933 13.5315 10.4345 13.5056 10.5628C13.5056 10.6013 13.4279 10.7041 13.3633 10.7811C13.3245 10.8324 13.2081 10.9479 13.1692 10.9864C13.1175 11.0249 12.9364 11.1662 12.8976 11.1918C12.8588 11.2175 12.807 11.2817 12.7682 11.2945C12.6389 11.3588 12.4966 11.3074 12.3672 11.2432C12.2379 11.179 12.3931 11.1662 12.2508 11.0635C11.9015 10.8196 11.7074 10.6527 11.8498 10.1778C11.8627 10.0879 12.0049 9.98521 12.186 9.84405Z" fill="#F0EFEF"/>
<path opacity="0.4" d="M8.88759 6.90482C7.72329 7.36693 4.76076 8.83027 3.91992 9.27953C4.61849 9.71593 4.9419 10.7685 5.04542 11.8338C5.05832 11.9366 5.07127 12.0264 5.08423 12.1291C5.09712 12.2189 5.11008 12.2831 5.12297 12.3217C5.12297 12.3345 5.12297 12.3602 5.13593 12.373C5.89922 10.3064 8.62878 8.12428 8.73231 7.95741C8.78401 7.8804 8.66759 7.54666 8.84872 7.22583C9.08162 6.81496 9.53447 6.63523 8.88759 6.90482ZM11.656 16.596C12.2511 15.4151 12.264 14.2855 12.2511 12.9634C12.2511 12.4114 12.6521 11.6284 12.4452 11.8466C11.6689 12.7066 9.71554 14.324 8.30544 14.4138C10.2847 14.3497 11.0609 15.338 11.656 16.596Z" fill="#59A9C6"/>
<path d="M2.78125 10.3703C3.51863 9.84402 7.33495 7.82883 8.25346 7.54638C9.17191 7.25114 8.88732 6.90454 8.88732 6.90454C8.88732 6.90454 5.16156 8.49619 2.93647 9.86967" fill="#59A9C6"/>
<path opacity="0.4" d="M13.648 6.66078C13.3504 6.54526 13.1176 6.89186 13.1952 7.22561C13.2729 7.55935 13.9714 7.93154 13.9326 9.151C13.9067 10.1522 13.6868 10.5629 13.6868 10.5629L13.1952 9.94685C13.1952 9.94685 13.1176 8.56052 12.9494 8.35514C12.7813 8.14977 12.2508 7.77752 12.0438 7.585C11.8369 7.39242 12.2767 7.13574 12.2508 6.77629C12.225 6.42975 12.4708 5.73661 12.4708 5.73661L13.648 6.66078ZM15.4462 12.1289C15.4203 13.0915 15.6403 14.5164 15.7308 15.1967C15.8214 15.877 15.9378 15.9283 15.7308 16.2364C15.5238 16.5317 15.2522 17.0194 15.2522 17.0194L14.3595 16.9424C14.3595 16.9424 15.071 16.0439 15.1098 15.877C15.1486 15.7102 14.7476 14.4394 14.7476 14.4394L15.4462 12.1289ZM13.7257 3.14374C13.9068 3.54157 14.1267 3.7213 14.4759 3.83687C14.6829 3.91388 15.4979 4.0166 15.8214 3.65714C15.9636 3.49027 15.8731 3.04102 15.8731 3.04102L15.1357 3.63143L14.1396 3.45177L14.0231 3.15653L13.7257 3.14374Z" fill="#59A9C6"/>
<path d="M13.8037 4.02954C14.14 4.24777 14.9809 4.45315 15.2138 4.49165C15.4466 4.54295 15.8218 4.24777 16.0029 4.17076C16.197 4.0809 16.5333 4.02954 16.9214 4.37614C16.9602 4.41464 16.8308 4.58152 16.8308 4.58152C16.8179 4.56866 16.7403 4.56866 16.6367 4.5173C16.5333 4.466 16.4427 4.42744 16.2875 4.44029C15.6406 4.5173 15.5372 4.73553 14.968 4.6071C14.3988 4.47867 14.2564 4.37608 13.7002 4.40173" fill="#8AC640"/>
<path d="M13.8037 4.02954C14.14 4.24777 14.9809 4.45315 15.2138 4.49165C15.4466 4.54295 15.8218 4.24777 16.0029 4.17076C16.197 4.0809 16.5333 4.02954 16.9214 4.37614C16.9602 4.41464 16.8308 4.58152 16.8308 4.58152C16.8179 4.56866 16.7403 4.56866 16.6367 4.5173C16.5333 4.466 16.4427 4.42744 16.2875 4.44029C15.6406 4.5173 15.5372 4.73553 14.968 4.6071C14.3988 4.47867 14.2564 4.37608 13.7002 4.40173" stroke="#59A9C6" stroke-width="0.2" stroke-miterlimit="10" stroke-linejoin="round"/>
<path d="M13.6869 4.06787C14.1138 4.2476 14.9417 4.44012 15.1746 4.49148C15.4074 4.54284 15.7826 4.31175 15.9637 4.19624C16.2872 3.99086 16.7011 4.15774 16.8952 4.37597C17.0245 4.51713 17.0763 4.60699 17.0763 4.6455C17.0763 4.69679 16.9211 4.6455 16.9211 4.6455C16.8305 4.60699 16.727 4.5942 16.6494 4.54278C16.5459 4.49148 16.4424 4.41447 16.2872 4.42726C15.6404 4.50433 15.511 4.7225 14.9547 4.59414C14.3985 4.46577 14.2562 4.35026 13.6611 4.3887" fill="white"/>
<path d="M11.6822 16.0568C11.6564 16.0312 11.7081 16.0055 11.6822 16.0055C11.5141 16.0055 11.2812 15.8772 11.1518 15.6974C10.5955 14.9016 9.78046 14.3754 8.30571 14.4139C6.09351 14.4652 5.2138 13.5667 5.04569 11.8467C4.95512 10.9097 4.69637 9.99833 4.16598 9.48486L3.85547 9.67745C4.45051 10.1909 4.64461 11.0252 4.77398 12.1676C4.98097 13.8876 6.37811 14.6835 8.00815 14.7091C9.70285 14.7348 10.3109 15.0814 10.9447 15.9286C11.1517 16.1981 11.3846 16.288 11.5657 16.3265L11.6822 16.0568Z" fill="#59A9C6"/>
<path opacity="0.4" d="M17.6847 7.80322C17.7235 7.99574 17.827 8.36799 18.034 8.54766C18.1246 8.63752 18.1375 8.66317 18.0599 8.66317C17.9822 8.66317 17.413 8.63752 17.413 8.63752L17.2578 8.36799L17.6847 7.80322Z" fill="#59A9C6"/>
</svg>
