<svg width="43" height="48" viewBox="0 0 43 48" fill="none" xmlns="http://www.w3.org/2000/svg">
<path d="M24.1482 2.50644L38.3505 10.7492C40.0145 11.7167 41.0594 13.5355 41.0594 15.4704V32.3816C41.0594 34.5487 39.8984 36.5223 38.0409 37.5672L23.9547 45.5003C22.0972 46.5452 19.814 46.5452 17.9564 45.4616L4.99249 37.9928C2.94147 36.8319 1.70312 34.6648 1.70312 32.3042V16.2831C1.70312 13.9225 2.94147 11.7167 4.95379 10.4783L17.6468 2.62254C19.6205 1.38419 22.1359 1.34549 24.1482 2.50644Z" fill="#59A9C7"/>
<path d="M20.9745 47.977C19.6201 47.977 18.3043 47.6287 17.1047 46.9322L4.14072 39.4634C1.58663 37.9929 0 35.2453 0 32.3042V16.2831C0 13.3033 1.50924 10.6331 4.02463 9.04648L16.7564 1.19072C19.2718 -0.357216 22.4063 -0.395914 24.9604 1.07462L39.1627 9.31737C41.3685 10.5944 42.723 12.955 42.723 15.4704V32.3816C42.723 35.1292 41.2524 37.6833 38.8531 39.0377L24.7669 46.9709C23.606 47.6287 22.2903 47.977 20.9745 47.977ZM20.9745 3.35783C20.1231 3.35783 19.2718 3.59002 18.5365 4.0544L5.76606 11.9102C4.21812 12.8389 3.32806 14.503 3.32806 16.2831V32.3429C3.32806 34.0843 4.25682 35.7096 5.76606 36.5997L18.73 44.0685C20.0844 44.8425 21.7485 44.8425 23.1029 44.1072L37.1891 36.174C38.5436 35.4001 39.3562 34.0069 39.3562 32.459V15.5091C39.3562 14.1547 38.621 12.9163 37.46 12.2197L23.2964 3.977C22.5998 3.55132 21.7872 3.35783 20.9745 3.35783Z" fill="#4C8DA6"/>
<path d="M11.5322 36.7157V11.02H16.9113V20.385H25.8119V11.02H31.191V36.7157H25.8119V25.4932H16.9113V36.7157H11.5322Z" fill="white"/>
</svg>
