<svg width="22" height="24" viewBox="0 0 22 24" fill="none" xmlns="http://www.w3.org/2000/svg">
<path d="M12.0687 1.25265L19.1665 5.37206C19.9981 5.85555 20.5203 6.76453 20.5203 7.73152V16.1831C20.5203 17.2661 19.9401 18.2524 19.0117 18.7746L11.972 22.7393C11.0437 23.2615 9.90264 23.2615 8.97433 22.72L2.49546 18.9874C1.47044 18.4072 0.851562 17.3241 0.851562 16.1444V8.13766C0.851562 6.95793 1.47044 5.85555 2.47612 5.23668L8.81961 1.31067C9.80594 0.691797 11.063 0.672457 12.0687 1.25265Z" fill="white"/>
<path d="M10.4822 23.977C9.80534 23.977 9.14778 23.803 8.54824 23.4548L2.06937 19.7222C0.792936 18.9873 0 17.6142 0 16.1444V8.13764C0 6.64847 0.754257 5.31401 2.01135 4.52108L8.37418 0.595074C9.63128 -0.178522 11.1978 -0.197862 12.4742 0.537054L19.572 4.65646C20.6744 5.29467 21.3513 6.47441 21.3513 7.7315V16.183C21.3513 17.5562 20.6163 18.8326 19.4173 19.5095L12.3775 23.4742C11.7973 23.803 11.1398 23.977 10.4822 23.977ZM10.4822 1.67811C10.0568 1.67811 9.63128 1.79415 9.26382 2.02623L2.88165 5.95223C2.10805 6.41639 1.66323 7.248 1.66323 8.13764V16.1637C1.66323 17.034 2.12739 17.8463 2.88165 18.2911L9.36052 22.0237C10.0374 22.4105 10.869 22.4105 11.5459 22.043L18.5857 18.0784C19.2626 17.6916 19.6687 16.9953 19.6687 16.2217V7.75084C19.6687 7.07394 19.3012 6.45507 18.721 6.10695L11.6426 1.98755C11.2945 1.77481 10.8884 1.67811 10.4822 1.67811Z" fill="#C6DEE7"/>
<path d="M5.76367 18.349V5.50732H8.45192V10.1876H12.9001V5.50732H15.5883V18.349H12.9001V12.7405H8.45192V18.349H5.76367Z" fill="#59A9C6"/>
</svg>
