<svg width="42" height="42" viewBox="0 0 42 42" fill="none" xmlns="http://www.w3.org/2000/svg">
<path d="M0 0V42H42V0H0ZM22.8563 32.7562C22.8563 36.8437 20.4562 38.7094 16.9594 38.7094C13.8 38.7094 11.9719 37.0781 11.0344 35.1L14.25 33.1594C14.8687 34.2563 15.4313 35.1844 16.7906 35.1844C18.0844 35.1844 18.9094 34.6781 18.9094 32.7V19.2844H22.8563V32.7562V32.7562ZM32.1937 38.7094C28.5281 38.7094 26.1563 36.9656 25.0031 34.6781L28.2188 32.8219C29.0625 34.2 30.1687 35.2219 32.1094 35.2219C33.7406 35.2219 34.7906 34.4062 34.7906 33.2719C34.7906 31.9219 33.7219 31.4437 31.9125 30.6469L30.9281 30.225C28.0781 29.0156 26.1937 27.4875 26.1937 24.2719C26.1937 21.3094 28.4531 19.0594 31.9688 19.0594C34.4812 19.0594 36.2812 19.9313 37.575 22.2188L34.5 24.1875C33.825 22.9781 33.0937 22.5 31.9594 22.5C30.8062 22.5 30.075 23.2313 30.075 24.1875C30.075 25.3688 30.8063 25.8469 32.5031 26.5875L33.4875 27.0094C36.8438 28.4438 38.7281 29.9156 38.7281 33.2156C38.7281 36.7594 35.9344 38.7094 32.1937 38.7094V38.7094Z" fill="#59A9C7"/>
</svg>
