<svg width="24" height="23" viewBox="0 0 24 23" fill="none" xmlns="http://www.w3.org/2000/svg">
<path d="M0.664062 0V23H23.6641V0H0.664062ZM13.1806 17.9379C13.1806 20.1763 11.8663 21.198 9.95134 21.198C8.22121 21.198 7.22009 20.3047 6.7067 19.2214L8.46763 18.1587C8.80647 18.7594 9.11451 19.2676 9.85893 19.2676C10.5674 19.2676 11.0192 18.9904 11.0192 17.9071V10.5605H13.1806V17.9379ZM18.294 21.198C16.2866 21.198 14.9877 20.2431 14.3563 18.9904L16.1172 17.9739C16.5792 18.7286 17.185 19.2882 18.2478 19.2882C19.1411 19.2882 19.7161 18.8415 19.7161 18.2203C19.7161 17.481 19.1308 17.2192 18.14 16.7828L17.6009 16.5518C16.0402 15.8895 15.0083 15.0527 15.0083 13.2917C15.0083 11.6694 16.2455 10.4373 18.1708 10.4373C19.5467 10.4373 20.5324 10.9147 21.2408 12.1674L19.5569 13.2455C19.1873 12.5833 18.7868 12.3214 18.1656 12.3214C17.5342 12.3214 17.1337 12.7219 17.1337 13.2455C17.1337 13.8924 17.5342 14.1542 18.4634 14.5598L19.0025 14.7908C20.8404 15.5763 21.8723 16.3824 21.8723 18.1895C21.8723 20.1301 20.3424 21.198 18.294 21.198Z" fill="white"/>
</svg>
