<svg width="26" height="23" viewBox="0 0 26 23" fill="none" xmlns="http://www.w3.org/2000/svg">
<path d="M26.0003 11.5026C26.0003 9.79171 23.8566 8.17029 20.57 7.1648C21.3285 3.81666 20.9914 1.1529 19.506 0.300068C19.1637 0.100023 18.7634 0.00526428 18.3262 0.00526428V1.17922C18.5685 1.17922 18.7634 1.2266 18.9267 1.31609C19.643 1.72671 19.9537 3.29023 19.7115 5.30121C19.6535 5.79606 19.5587 6.31724 19.4428 6.84894C18.4105 6.59625 17.2834 6.40146 16.0983 6.27512C15.3872 5.30121 14.6498 4.4168 13.9072 3.64294C15.6242 2.04784 17.2359 1.17395 18.3315 1.17395V0C16.8831 0 14.9869 1.03182 13.0697 2.8217C11.1525 1.04234 9.25636 0.0210575 7.80792 0.0210575V1.19501C8.8982 1.19501 10.5152 2.06363 12.2322 3.6482C11.4949 4.42206 10.7575 5.30121 10.057 6.27512C8.8666 6.40146 7.73945 6.59625 6.70711 6.8542C6.58596 6.32776 6.49642 5.81712 6.43322 5.32753C6.18567 3.31655 6.49116 1.75303 7.20221 1.33715C7.36022 1.24239 7.56564 1.20027 7.80792 1.20027V0.0263218C7.36549 0.0263218 6.96519 0.12108 6.61757 0.321126C5.13752 1.17395 4.8057 3.83246 5.56942 7.17006C2.29331 8.18082 0.160156 9.79698 0.160156 11.5026C0.160156 13.2135 2.30385 14.835 5.59049 15.8405C4.83203 19.1886 5.16913 21.8524 6.65444 22.7052C6.99679 22.9052 7.39709 23 7.83952 23C9.28796 23 11.1841 21.9682 13.1013 20.1783C15.0185 21.9577 16.9147 22.9789 18.3631 22.9789C18.8055 22.9789 19.2058 22.8842 19.5535 22.6841C21.0335 21.8313 21.3653 19.1728 20.6016 15.8352C23.8672 14.8297 26.0003 13.2083 26.0003 11.5026ZM19.1426 7.9913C18.9477 8.6704 18.7055 9.37056 18.4316 10.0707C18.2156 9.64958 17.9891 9.22843 17.7416 8.80728C17.4993 8.38613 17.2412 7.97551 16.9831 7.57542C17.7311 7.68597 18.4526 7.82284 19.1426 7.9913ZM16.7303 13.5978C16.3195 14.3085 15.8981 14.9824 15.461 15.6088C14.6762 15.6773 13.8808 15.7141 13.0802 15.7141C12.2849 15.7141 11.4896 15.6773 10.7101 15.6141C10.2729 14.9876 9.84627 14.3191 9.43544 13.6136C9.03514 12.924 8.67172 12.2238 8.33989 11.5184C8.66645 10.813 9.03514 10.1076 9.43017 9.41794C9.841 8.70725 10.2624 8.03342 10.6995 7.40696C11.4843 7.33852 12.2796 7.30167 13.0802 7.30167C13.8756 7.30167 14.6709 7.33852 15.4504 7.40169C15.8876 8.02815 16.3142 8.69673 16.725 9.40215C17.1253 10.0918 17.4888 10.7919 17.8206 11.4974C17.4888 12.2028 17.1253 12.9082 16.7303 13.5978ZM18.4316 12.9135C18.716 13.6189 18.9583 14.3243 19.1584 15.0087C18.4684 15.1772 17.7416 15.3193 16.9884 15.4298C17.2465 15.0245 17.5046 14.6086 17.7469 14.1822C17.9891 13.761 18.2156 13.3346 18.4316 12.9135ZM13.0908 18.5306C12.6009 18.0252 12.1111 17.4619 11.6265 16.846C12.1006 16.867 12.5851 16.8828 13.075 16.8828C13.5701 16.8828 14.0599 16.8723 14.5392 16.846C14.0652 17.4619 13.5753 18.0252 13.0908 18.5306ZM9.17209 15.4298C8.42417 15.3193 7.70258 15.1824 7.01259 15.014C7.20748 14.3349 7.44976 13.6347 7.72365 12.9345C7.9396 13.3557 8.16608 13.7768 8.41363 14.198C8.66118 14.6191 8.914 15.0298 9.17209 15.4298ZM13.0644 4.47471C13.5543 4.98009 14.0441 5.54337 14.5287 6.1593C14.0546 6.13825 13.5701 6.12245 13.0802 6.12245C12.5851 6.12245 12.0953 6.13298 11.616 6.1593C12.09 5.54337 12.5799 4.98009 13.0644 4.47471ZM9.16682 7.57542C8.90874 7.98077 8.65065 8.39666 8.40836 8.82307C8.16608 9.24422 7.9396 9.66537 7.72365 10.0865C7.43923 9.38109 7.19694 8.67567 6.99679 7.9913C7.68678 7.82811 8.41363 7.68597 9.16682 7.57542ZM4.40014 14.1664C2.5356 13.3715 1.32944 12.3291 1.32944 11.5026C1.32944 10.6761 2.5356 9.62852 4.40014 8.83886C4.8531 8.64408 5.34821 8.47036 5.85911 8.30716C6.15933 9.33898 6.55436 10.4129 7.0442 11.5132C6.55963 12.6081 6.16987 13.6768 5.87491 14.7034C5.35347 14.5402 4.85837 14.3612 4.40014 14.1664ZM7.23381 21.6892C6.51749 21.2786 6.20674 19.715 6.44902 17.704C6.50696 17.2092 6.60177 16.688 6.71764 16.1563C7.74998 16.409 8.87713 16.6038 10.0622 16.7301C10.7733 17.704 11.5107 18.5885 12.2533 19.3623C10.5363 20.9574 8.92454 21.8313 7.82899 21.8313C7.59197 21.826 7.39182 21.7787 7.23381 21.6892ZM19.7273 17.6777C19.9748 19.6887 19.6693 21.2522 18.9583 21.6681C18.8003 21.7629 18.5948 21.805 18.3526 21.805C17.2623 21.805 15.6453 20.9364 13.9282 19.3518C14.6656 18.5779 15.403 17.6988 16.1035 16.7249C17.2939 16.5985 18.421 16.4038 19.4534 16.1458C19.5745 16.6775 19.6693 17.1881 19.7273 17.6777ZM21.7551 14.1664C21.3021 14.3612 20.807 14.5349 20.2961 14.6981C19.9959 13.6663 19.6009 12.5924 19.111 11.4921C19.5956 10.3971 19.9854 9.32845 20.2803 8.3019C20.8017 8.46509 21.2968 8.64408 21.7603 8.83886C23.6249 9.63378 24.831 10.6761 24.831 11.5026C24.8258 12.3291 23.6196 13.3767 21.7551 14.1664Z" fill="white"/>
<path d="M13.075 13.9086C14.4044 13.9086 15.4821 12.8314 15.4821 11.5027C15.4821 10.174 14.4044 9.09692 13.075 9.09692C11.7456 9.09692 10.668 10.174 10.668 11.5027C10.668 12.8314 11.7456 13.9086 13.075 13.9086Z" fill="white"/>
</svg>
