<svg width="42" height="32" viewBox="0 0 42 32" fill="#fff" xmlns="http://www.w3.org/2000/svg">
<path d="M19.8082 24.1924C19.7886 24.2324 19.7689 24.2644 19.8082 24.1924V24.1924ZM36.1576 18.3929C34.8377 18.3925 33.5354 18.7004 32.3513 19.2928C31.9641 18.4995 31.5638 17.8063 31.4982 17.2863C31.4194 16.6797 31.3341 16.3197 31.426 15.5998C31.5179 14.8798 31.9313 13.8599 31.9247 13.7866C31.9182 13.7133 31.8329 13.3466 30.9863 13.34C30.1397 13.3333 29.4113 13.5066 29.3266 13.7333C29.1771 14.1475 29.0608 14.5733 28.9788 15.0065C28.8279 15.7864 27.2863 18.5729 26.4135 20.0261C26.1247 19.4595 25.8819 18.9595 25.8294 18.5595C25.7507 17.9529 25.6653 17.5929 25.7572 16.873C25.8491 16.1531 26.2625 15.1331 26.256 15.0598C26.2494 14.9865 26.1641 14.6199 25.3182 14.6132C24.4723 14.6065 23.7432 14.7798 23.6579 15.0065C23.5725 15.2331 23.4807 15.7664 23.31 16.2797C23.1394 16.793 21.086 21.4326 20.5485 22.6392C20.2729 23.2525 20.0366 23.7458 19.866 24.0791C19.8397 24.1324 19.8201 24.1657 19.8069 24.1924C19.8266 24.1591 19.8397 24.1257 19.8397 24.1391C19.6954 24.4257 19.6101 24.5857 19.6101 24.5857V24.5924C19.4985 24.8057 19.3738 24.999 19.3147 24.999C19.2754 24.999 19.1901 24.4391 19.3344 23.6725C19.6429 22.0593 20.3713 19.5528 20.3648 19.4661C20.3582 19.4195 20.5026 18.9862 19.8857 18.7529C19.2885 18.5329 19.0719 18.8995 19.0194 18.8995C18.9669 18.8995 18.9275 19.0328 18.9275 19.0328C18.9275 19.0328 19.5904 16.2064 17.6551 16.2064C16.4476 16.2064 14.7675 17.553 13.942 18.7729C13.4235 19.0595 12.3013 19.6794 11.1201 20.3394C10.6672 20.5927 10.2013 20.8527 9.7616 21.0993C9.72879 21.066 9.70254 21.0327 9.66972 20.9993C7.32098 18.4529 2.98443 16.653 3.16818 13.2333C3.2338 11.9867 3.66037 8.71367 11.5072 4.74066C17.9386 1.4876 23.0803 2.38086 23.9656 4.36736C25.2388 7.20046 21.2166 12.4734 14.5378 13.2333C11.9922 13.5199 10.6541 12.52 10.3194 12.1467C9.9716 11.7534 9.9191 11.7334 9.78785 11.8068C9.57128 11.9267 9.7091 12.2734 9.78785 12.48C9.98473 13.0067 10.805 13.9399 12.2022 14.4065C13.4294 14.8132 16.4141 15.0398 20.0228 13.6199C24.0772 12.0334 27.2331 7.61376 26.3078 3.91406C25.3654 0.154371 19.2281 -1.07886 13.4248 1.0143C9.96701 2.26087 6.22765 4.22071 3.53765 6.77383C0.342333 9.81358 -0.168892 12.46 0.0411104 13.5666C0.788588 17.493 6.11609 20.0527 8.24827 21.9459C8.14327 22.0059 8.04483 22.0593 7.95295 22.1126C6.88391 22.6525 2.82233 24.8124 1.80579 27.0922C0.657336 29.6786 1.9961 31.5318 2.87483 31.7851C5.61733 32.5584 8.42546 31.1652 9.93419 28.8787C11.4429 26.5922 11.2598 23.6058 10.5642 22.2459C10.5576 22.2259 10.5445 22.2126 10.538 22.1926C10.8136 22.0259 11.0958 21.8593 11.378 21.6926C11.922 21.366 12.4536 21.066 12.9195 20.806C12.657 21.526 12.4667 22.3926 12.3683 23.6458C12.2501 25.1123 12.8473 27.0122 13.6217 27.7588C13.963 28.0854 14.3757 28.0921 14.6317 28.0921C15.5373 28.0921 15.9442 27.3322 16.3964 26.4256C16.9542 25.319 17.4464 24.0324 17.4464 24.0324C17.4464 24.0324 16.8295 27.5121 18.5161 27.5121C19.1323 27.5121 19.7492 26.7055 20.0255 26.2922V26.2989C20.0255 26.2989 20.0386 26.2722 20.0714 26.2189C20.137 26.1189 20.1698 26.0589 20.1698 26.0589V26.0389C20.4192 25.6056 20.9639 24.6124 21.7836 22.9725C22.8467 20.8527 23.8633 18.2062 23.8633 18.2062C23.9615 18.788 24.0974 19.3625 24.2701 19.9261C24.4539 20.5594 24.8411 21.2527 25.1495 21.9259C24.9002 22.2726 24.7492 22.4726 24.7492 22.4726C24.7497 22.4777 24.752 22.4824 24.7558 22.4859C24.5589 22.7525 24.3358 23.0392 24.1061 23.3191C23.2667 24.3324 22.2686 25.4923 22.1373 25.8256C21.9798 26.2189 22.0192 26.5122 22.3211 26.7389C22.5442 26.9122 22.9379 26.9389 23.3507 26.9055C24.1054 26.8522 24.637 26.6655 24.8929 26.5456C25.3648 26.3737 25.8107 26.1359 26.2179 25.8389C27.0382 25.2257 27.537 24.3457 27.4911 23.1858C27.4648 22.5459 27.2614 21.9059 27.012 21.306C27.0842 21.1993 27.1629 21.086 27.2351 20.9727C28.5338 19.0462 29.5379 16.9317 29.5379 16.9317C29.6362 17.5134 29.7721 18.088 29.9448 18.6515C30.1023 19.1915 30.4101 19.7848 30.6923 20.3647C29.4723 21.3713 28.7176 22.5379 28.4551 23.3045C27.9695 24.7244 28.3501 25.3643 29.0654 25.511C29.387 25.5776 29.8464 25.4243 30.1876 25.2777C30.6944 25.1062 31.1723 24.8566 31.6045 24.5377C32.4248 23.9244 33.2182 23.0645 33.1657 21.8979C33.146 21.3713 33.0017 20.8447 32.8113 20.3381C33.8417 19.8981 35.1798 19.6581 36.886 19.8581C40.5401 20.2914 41.2554 22.6112 41.1176 23.5778C40.9798 24.5444 40.212 25.0843 39.956 25.2443C39.7001 25.4043 39.6213 25.4643 39.641 25.5843C39.6738 25.7576 39.792 25.751 40.0085 25.711C40.3104 25.6576 41.9241 24.9244 41.9963 23.1312C42.1013 20.8647 39.956 18.3716 36.1556 18.3916L36.1576 18.3929ZM7.99233 28.0388C6.78547 29.3787 5.09233 29.8853 4.36454 29.4586C3.58359 28.9974 3.89203 27.0255 5.38108 25.5976C6.28671 24.731 7.4542 23.9311 8.22858 23.4378C8.40577 23.3311 8.66171 23.1712 8.97671 22.9778C9.02921 22.9445 9.05547 22.9312 9.05547 22.9312C9.11453 22.8912 9.18015 22.8579 9.24578 22.8179C9.78982 24.8444 9.26547 26.6309 7.99233 28.0374V28.0388ZM16.8098 21.9459C16.3898 22.9925 15.5045 25.659 14.9664 25.519C14.507 25.399 14.2248 23.3658 14.8745 21.366C15.2026 20.3594 15.8983 19.1595 16.3117 18.6929C16.9739 17.9396 17.7023 17.6996 17.8729 17.9996C18.1026 18.3929 17.0723 21.2926 16.8098 21.9459ZM24.0943 25.479C23.9171 25.5723 23.753 25.6323 23.6743 25.5856C23.6152 25.5523 23.7464 25.4256 23.7464 25.4256C23.7464 25.4256 24.6586 24.4324 25.0196 23.9791C25.2296 23.7125 25.4724 23.3991 25.7343 23.0525C25.7343 23.0858 25.7408 23.1192 25.7408 23.1592C25.7323 24.3524 24.6042 25.159 24.0923 25.479H24.0943ZM29.7105 24.1791C29.5793 24.0858 29.599 23.7724 30.0386 22.7992C30.2093 22.4192 30.6024 21.7793 31.2855 21.166C31.3629 21.3981 31.4049 21.6409 31.4102 21.8859C31.4037 23.3858 30.3471 23.9458 29.7112 24.1791H29.7105Z"/>
</svg>
