<svg width="39" height="23" viewBox="0 0 39 23" fill="none" xmlns="http://www.w3.org/2000/svg">
<path d="M19.5 0C14.2999 0 11.051 2.55469 9.75 7.66617C11.6994 5.11118 13.9751 4.15309 16.5744 4.79192C18.0585 5.1555 19.1191 6.21332 20.2937 7.38554C22.2053 9.29242 24.418 11.5 29.25 11.5C34.4498 11.5 37.699 8.94501 39 3.83233C37.0503 6.38882 34.7749 7.34691 32.1753 6.70808C30.6915 6.3442 29.6321 5.28668 28.456 4.11446C26.5456 2.20758 24.3336 0 19.5 0ZM9.75 11.5C4.5502 11.5 1.30102 14.055 0 19.1677C1.94939 16.6112 4.2248 15.6531 6.82439 16.2919C8.30852 16.6558 9.36914 17.7133 10.5437 18.8855C12.4553 20.7924 14.668 23 19.5 23C24.6998 23 27.949 20.4453 29.25 15.3338C27.3003 17.8888 25.0249 18.8469 22.4253 18.2081C20.9415 17.8445 19.8821 16.7867 18.706 15.6145C16.7956 13.7076 14.5836 11.5 9.75 11.5Z" fill="white"/>
</svg>
