<svg width="42" height="25" viewBox="0 0 42 25" fill="#59A9C7" xmlns="http://www.w3.org/2000/svg">
<path d="M21 0C15.3999 0 11.9011 2.77684 10.5 8.33279C12.5993 5.55563 15.0501 4.51423 17.8493 5.2086C19.4476 5.60381 20.5898 6.75361 21.8548 8.02776C23.9134 10.1005 26.2963 12.5 31.5 12.5C37.0998 12.5 40.5989 9.72284 42 4.16558C39.9003 6.94437 37.4499 7.98577 34.6503 7.2914C33.0524 6.89587 31.9115 5.74639 30.6449 4.47224C28.5876 2.39954 26.2054 0 21 0ZM10.5 12.5C4.90022 12.5 1.40109 15.2772 0 20.8344C2.09934 18.0556 4.54978 17.0142 7.34934 17.7086C8.94764 18.1041 10.0898 19.2536 11.3548 20.5278C13.4134 22.6005 15.7963 25 21 25C26.5998 25 30.0989 22.2232 31.5 16.6672C29.4003 19.4444 26.9499 20.4858 24.1503 19.7914C22.5524 19.3962 21.4115 18.2464 20.1449 16.9722C18.0876 14.8995 15.7054 12.5 10.5 12.5Z" fill="#59A9C7"/>
</svg>
